<?xml version="1.0" encoding="UTF-8"?>
<svg id="Layer_1" data-name="Layer 1" xmlns="http://www.w3.org/2000/svg" viewBox="0 0 143.93149 158.29497">
  <defs>
    <style>
      .cls-1 {
        fill: #364897;
        stroke-width: 0px;
      }
    </style>
  </defs>
  <path class="cls-1" d="M65.78396,110.7056c.69492,0,1.49544-.42626,1.788-.95204.29246-.52578-.03373-.95204-.7287-.95204-.69492,0-1.49544.42626-1.788.95204-.29251.52578.03373.95204.7287.95204Z"/>
  <path class="cls-1" d="M58.34028,110.7056c.69487,0,1.49539-.42626,1.7879-.95204.29256-.52578-.03368-.95204-.72865-.95204-.69492,0-1.49539.42626-1.78795.95204-.29251.52578.03373.95204.7287.95204Z"/>
  <path class="cls-1" d="M50.89651,110.7056c.69497,0,1.49549-.42626,1.78795-.95204.29256-.52578-.03363-.95204-.7286-.95204s-1.49544.42626-1.788.95204c-.29251.52578.03373.95204.72865.95204Z"/>
  <path class="cls-1" d="M74.28694,108.80153c-.69492,0-1.49539.42626-1.7879.95204-.29256.52578.03368.95204.72865.95204.69492,0,1.49539-.42626,1.78795-.95204.29251-.52578-.03373-.95204-.7287-.95204Z"/>
  <path class="cls-1" d="M81.73067,108.80153c-.69492,0-1.49544.42626-1.78795.95204-.29256.52578.03368.95204.72865.95204.69492,0,1.49544-.42626,1.788-.95204.29251-.52578-.03373-.95204-.7287-.95204Z"/>
  <path class="cls-1" d="M61.69892,117.95395c.69492,0,1.49544-.42621,1.788-.95199.29246-.52583-.03373-.95209-.7287-.95209-.69492,0-1.49544.42626-1.788.95209-.29251.52578.03373.95199.7287.95199Z"/>
  <path class="cls-1" d="M54.25524,117.95395c.69487,0,1.49539-.42621,1.7879-.95199.29256-.52583-.03368-.95209-.72865-.95209-.69492,0-1.49539.42626-1.78795.95209-.29251.52578.03373.95199.7287.95199Z"/>
  <path class="cls-1" d="M46.81147,117.95395c.69497,0,1.49549-.42621,1.78795-.95199.29256-.52583-.03363-.95209-.7286-.95209-.69492,0-1.49544.42626-1.788.95209-.29251.52578.03373.95199.72865.95199Z"/>
  <path class="cls-1" d="M70.2019,116.04988c-.69492,0-1.49539.42626-1.7879.95209-.29256.52578.03368.95199.72865.95199.69492,0,1.49539-.42621,1.78795-.95199.29251-.52583-.03373-.95209-.7287-.95209Z"/>
  <path class="cls-1" d="M77.64568,116.04988c-.69497,0-1.49549.42626-1.788.95209-.29256.52578.03368.95199.72865.95199.69492,0,1.49544-.42621,1.788-.95199.29251-.52583-.03373-.95209-.72865-.95209Z"/>
  <path class="cls-1" d="M69.97343,103.45716c.69492,0,1.49544-.42621,1.788-.95199.29246-.52583-.03373-.95209-.72865-.95209-.69497,0-1.49549.42626-1.788.95209-.29256.52578.03368.95199.72865.95199Z"/>
  <path class="cls-1" d="M62.52975,103.45716c.69487,0,1.49539-.42621,1.78795-.95199.29251-.52583-.03373-.95209-.7287-.95209-.69492,0-1.49539.42626-1.7879.95209-.29256.52578.03368.95199.72865.95199Z"/>
  <path class="cls-1" d="M55.08602,103.45716c.69492,0,1.49544-.42621,1.78795-.95199.29251-.52583-.03368-.95209-.72865-.95209-.69492,0-1.49544.42626-1.788.95209-.29251.52578.03373.95199.7287.95199Z"/>
  <path class="cls-1" d="M78.47645,101.55308c-.69497,0-1.49544.42626-1.78795.95209-.29251.52578.03368.95199.72865.95199s1.49544-.42621,1.78795-.95199c.29251-.52583-.03373-.95209-.72865-.95209Z"/>
  <path class="cls-1" d="M85.92018,101.55308c-.69497,0-1.49549.42626-1.788.95209-.29251.52578.03373.95199.72865.95199.69497,0,1.49549-.42621,1.788-.95199.29251-.52583-.03373-.95209-.72865-.95209Z"/>
  <path class="cls-1" d="M74.05847,96.20881c.69492,0,1.49544-.42626,1.788-.95204.29246-.52578-.03373-.95204-.72865-.95204-.69497,0-1.49549.42626-1.788.95204-.29256.52578.03368.95204.72865.95204Z"/>
  <path class="cls-1" d="M66.61479,96.20881c.69487,0,1.49539-.42626,1.78795-.95204.29251-.52578-.03373-.95204-.7287-.95204-.69492,0-1.49539.42626-1.7879.95204-.29256.52578.03368.95204.72865.95204Z"/>
  <path class="cls-1" d="M59.17106,96.20881c.69492,0,1.49544-.42626,1.78795-.95204s-.03368-.95204-.72865-.95204c-.69492,0-1.49544.42626-1.788.95204-.29251.52578.03373.95204.7287.95204Z"/>
  <path class="cls-1" d="M82.56149,94.30474c-.69497,0-1.49544.42626-1.78795.95204-.29256.52578.03368.95204.72865.95204s1.49544-.42626,1.78795-.95204-.03373-.95204-.72865-.95204Z"/>
  <path class="cls-1" d="M90.00522,94.30474c-.69497,0-1.49549.42626-1.788.95204s.03373.95204.72865.95204c.69497,0,1.49549-.42626,1.788-.95204s-.03373-.95204-.72865-.95204Z"/>
  <path class="cls-1" d="M82.33292,81.71197c.69497,0,1.49549-.42626,1.788-.95204.29246-.52578-.03373-.95204-.72865-.95204-.69497,0-1.49549.42626-1.788.95204s.03373.95204.72865.95204Z"/>
  <path class="cls-1" d="M74.88924,81.71197c.69492,0,1.49544-.42626,1.78795-.95204s-.03373-.95204-.72865-.95204c-.69497,0-1.49544.42626-1.78795.95204-.29256.52578.03368.95204.72865.95204Z"/>
  <path class="cls-1" d="M67.44551,81.71197c.69492,0,1.49544-.42626,1.78795-.95204s-.03368-.95204-.72865-.95204c-.69492,0-1.49544.42626-1.78795.95204-.29256.52578.03368.95204.72865.95204Z"/>
  <path class="cls-1" d="M90.83595,79.8079c-.69497,0-1.49544.42626-1.78795.95204s.03373.95204.72865.95204c.69497,0,1.49544-.42626,1.78795-.95204s-.03373-.95204-.72865-.95204Z"/>
  <path class="cls-1" d="M98.27968,79.8079c-.69497,0-1.49549.42626-1.788.95204s.03373.95204.72865.95204c.69497,0,1.49549-.42626,1.788-.95204.29256-.52578-.03373-.95204-.72865-.95204Z"/>
  <path class="cls-1" d="M78.24793,88.96037c.69497,0,1.49549-.42621,1.788-.95199.29246-.52583-.03373-.95209-.72865-.95209-.69497,0-1.49549.42626-1.788.95209-.29251.52578.03373.95199.72865.95199Z"/>
  <path class="cls-1" d="M70.80425,88.96037c.69492,0,1.49544-.42621,1.78795-.95199.29251-.52583-.03373-.95209-.72865-.95209-.69497,0-1.49544.42626-1.78795.95209-.29251.52578.03373.95199.72865.95199Z"/>
  <path class="cls-1" d="M63.36052,88.96037c.69492,0,1.49544-.42621,1.78795-.95199.29251-.52583-.03368-.95209-.7286-.95209-.69497,0-1.49549.42626-1.788.95209-.29256.52578.03368.95199.72865.95199Z"/>
  <path class="cls-1" d="M86.75096,87.05629c-.69497,0-1.49544.42626-1.78795.95209-.29251.52578.03373.95199.72865.95199.69497,0,1.49544-.42621,1.78795-.95199.29251-.52583-.03373-.95209-.72865-.95209Z"/>
  <path class="cls-1" d="M94.19468,87.05629c-.69497,0-1.49544.42626-1.788.95209-.29251.52578.03373.95199.72865.95199.69497,0,1.49549-.42621,1.788-.95199.29256-.52583-.03368-.95209-.72865-.95209Z"/>
  <path class="cls-1" d="M86.52243,74.46357c.69497,0,1.49549-.42621,1.788-.95199.29251-.52583-.03368-.95209-.72865-.95209s-1.49544.42626-1.788.95209c-.29251.52578.03373.95199.72865.95199Z"/>
  <path class="cls-1" d="M79.07875,74.46357c.69492,0,1.49544-.42621,1.78795-.95199.29251-.52583-.03373-.95209-.72865-.95209-.69497,0-1.49544.42626-1.78795.95209-.29251.52578.03373.95199.72865.95199Z"/>
  <path class="cls-1" d="M71.63502,74.46357c.69497,0,1.49549-.42621,1.78795-.95199.29251-.52583-.03368-.95209-.7286-.95209-.69497,0-1.49549.42626-1.788.95209-.29251.52578.03373.95199.72865.95199Z"/>
  <path class="cls-1" d="M95.02546,72.5595c-.69492,0-1.49539.42626-1.78795.95209-.29251.52578.03373.95199.7287.95199.69492,0,1.49539-.42621,1.7879-.95199.29256-.52583-.03368-.95209-.72865-.95209Z"/>
  <path class="cls-1" d="M102.46919,72.5595c-.69492,0-1.49544.42626-1.788.95209-.29251.52578.03373.95199.7287.95199.69492,0,1.49544-.42621,1.788-.95199.29251-.52583-.03373-.95209-.7287-.95209Z"/>
  <path class="cls-1" d="M90.60742,67.21518c.69497,0,1.49549-.42626,1.788-.95204s-.03368-.95204-.72865-.95204-1.49549.42626-1.788.95204.03373.95204.72865.95204Z"/>
  <path class="cls-1" d="M83.16374,67.21518c.69492,0,1.49544-.42626,1.78795-.95204s-.03373-.95204-.72865-.95204c-.69497,0-1.49544.42626-1.78795.95204s.03373.95204.72865.95204Z"/>
  <path class="cls-1" d="M75.72002,67.21518c.69497,0,1.49549-.42626,1.78795-.95204.29251-.52578-.03368-.95204-.7286-.95204-.69497,0-1.49549.42626-1.788.95204s.03373.95204.72865.95204Z"/>
  <path class="cls-1" d="M98.05115,67.21518c.69497,0,1.49544-.42626,1.78795-.95204.29256-.52578-.03368-.95204-.72865-.95204-.69492,0-1.49539.42626-1.78795.95204-.29251.52578.03373.95204.72865.95204Z"/>
  <path class="cls-1" d="M105.49488,67.21518c.69492,0,1.49544-.42626,1.78795-.95204.29256-.52578-.03368-.95204-.72865-.95204-.69492,0-1.49544.42626-1.788.95204-.29251.52578.03373.95204.7287.95204Z"/>
  <path class="cls-1" d="M94.79694,59.96678c.69492,0,1.49544-.42621,1.788-.95199.29246-.52583-.03373-.95209-.7287-.95209-.69492,0-1.49544.42626-1.788.95209-.29251.52578.03373.95199.7287.95199Z"/>
  <path class="cls-1" d="M87.35326,59.96678c.69487,0,1.49539-.42621,1.7879-.95199.29256-.52583-.03368-.95209-.72865-.95209-.69492,0-1.49539.42626-1.78795.95209-.29251.52578.03373.95199.7287.95199Z"/>
  <path class="cls-1" d="M79.90948,59.96678c.69497,0,1.49549-.42621,1.78795-.95199.29256-.52583-.03363-.95209-.7286-.95209-.69492,0-1.49544.42626-1.788.95209-.29251.52578.03373.95199.72865.95199Z"/>
  <path class="cls-1" d="M102.24066,59.96678c.69492,0,1.49539-.42621,1.78795-.95199.29251-.52583-.03373-.95209-.7287-.95209-.69492,0-1.49539.42626-1.7879.95209-.29256.52578.03368.95199.72865.95199Z"/>
  <path class="cls-1" d="M109.68434,59.96678c.69492,0,1.49544-.42621,1.788-.95199.29251-.52583-.03373-.95209-.72865-.95209-.69497,0-1.49549.42626-1.788.95209-.29256.52578.03368.95199.72865.95199Z"/>
  <path class="cls-1" d="M98.9864,52.71839c.69492,0,1.49549-.42626,1.788-.95204.29246-.52578-.03373-.95204-.72865-.95204-.69497,0-1.49549.42626-1.788.95204-.29256.52578.03368.95204.72865.95204Z"/>
  <path class="cls-1" d="M91.54272,52.71839c.69487,0,1.49539-.42626,1.78795-.95204.29251-.52578-.03373-.95204-.7287-.95204-.69492,0-1.49539.42626-1.7879.95204-.29256.52578.03368.95204.72865.95204Z"/>
  <path class="cls-1" d="M84.09899,52.71839c.69492,0,1.49544-.42626,1.78795-.95204s-.03368-.95204-.72865-.95204c-.69492,0-1.49544.42626-1.78795.95204-.29256.52578.03368.95204.72865.95204Z"/>
  <path class="cls-1" d="M106.43013,52.71839c.69497,0,1.49544-.42626,1.78795-.95204s-.03373-.95204-.72865-.95204c-.69497,0-1.49544.42626-1.78795.95204s.03373.95204.72865.95204Z"/>
  <path class="cls-1" d="M113.87381,52.71839c.69497,0,1.49549-.42626,1.788-.95204s-.03373-.95204-.72865-.95204c-.69497,0-1.49549.42626-1.788.95204s.03373.95204.72865.95204Z"/>
  <path class="cls-1" d="M103.07144,45.46994c.69492,0,1.49544-.42621,1.788-.95199.29246-.52583-.03373-.95209-.7287-.95209-.69492,0-1.49544.42626-1.78795.95209-.29256.52578.03368.95199.72865.95199Z"/>
  <path class="cls-1" d="M95.62776,45.46994c.69487,0,1.49539-.42621,1.78795-.95199.29251-.52583-.03373-.95209-.7287-.95209-.69492,0-1.49539.42626-1.7879.95209-.29256.52578.03368.95199.72865.95199Z"/>
  <path class="cls-1" d="M88.18403,45.46994c.69492,0,1.49544-.42621,1.78795-.95199.29251-.52583-.03368-.95209-.72865-.95209-.69492,0-1.49544.42626-1.788.95209-.29251.52578.03373.95199.7287.95199Z"/>
  <path class="cls-1" d="M110.51517,45.46994c.69497,0,1.49544-.42621,1.78795-.95199.29251-.52583-.03373-.95209-.72865-.95209-.69497,0-1.49544.42626-1.78795.95209-.29256.52578.03368.95199.72865.95199Z"/>
  <path class="cls-1" d="M117.95885,45.46994c.69497,0,1.49549-.42621,1.788-.95199.29251-.52583-.03373-.95209-.72865-.95209-.69497,0-1.49549.42626-1.788.95209-.29251.52578.03373.95199.72865.95199Z"/>
  <path class="cls-1" d="M107.2609,38.22159c.69497,0,1.49549-.42626,1.788-.95204.29246-.52578-.03373-.95204-.72865-.95204-.69497,0-1.49549.42626-1.788.95204s.03373.95204.72865.95204Z"/>
  <path class="cls-1" d="M99.81722,38.22159c.69492,0,1.49544-.42626,1.78795-.95204s-.03373-.95204-.72865-.95204c-.69497,0-1.49544.42626-1.78795.95204s.03373.95204.72865.95204Z"/>
  <path class="cls-1" d="M92.37349,38.22159c.69497,0,1.49549-.42626,1.78795-.95204.29251-.52578-.03368-.95204-.7286-.95204-.69497,0-1.49549.42626-1.788.95204-.29256.52578.03368.95204.72865.95204Z"/>
  <path class="cls-1" d="M114.70463,38.22159c.69497,0,1.49544-.42626,1.78795-.95204.29256-.52578-.03373-.95204-.72865-.95204-.69497,0-1.49544.42626-1.78795.95204s.03373.95204.72865.95204Z"/>
  <path class="cls-1" d="M122.14831,38.22159c.69497,0,1.49549-.42626,1.788-.95204.29256-.52578-.03368-.95204-.72865-.95204-.69492,0-1.49544.42626-1.788.95204-.29251.52578.03373.95204.72865.95204Z"/>
  <path class="cls-1" d="M40.96046,154.19598c.69492,0,1.49544-.42626,1.788-.95204.29246-.52578-.03373-.95204-.7287-.95204-.69492,0-1.49544.42626-1.78795.95204-.29256.52578.03368.95204.72865.95204Z"/>
  <path class="cls-1" d="M33.51678,154.19598c.69487,0,1.49539-.42626,1.78795-.95204.29251-.52578-.03373-.95204-.7287-.95204-.69492,0-1.49539.42626-1.7879.95204-.29256.52578.03368.95204.72865.95204Z"/>
  <path class="cls-1" d="M26.07305,154.19598c.69492,0,1.49544-.42626,1.78795-.95204s-.03368-.95204-.72865-.95204c-.69492,0-1.49544.42626-1.788.95204-.29251.52578.03373.95204.7287.95204Z"/>
  <path class="cls-1" d="M49.46348,152.29191c-.69497,0-1.49544.42626-1.78795.95204-.29256.52578.03368.95204.72865.95204s1.49544-.42626,1.78795-.95204-.03373-.95204-.72865-.95204Z"/>
  <path class="cls-1" d="M56.90721,152.29191c-.69497,0-1.49549.42626-1.788.95204s.03373.95204.72865.95204c.69497,0,1.49549-.42626,1.788-.95204s-.03373-.95204-.72865-.95204Z"/>
  <path class="cls-1" d="M49.23496,139.69919c.69497,0,1.49549-.42626,1.788-.95204.29246-.52578-.03373-.95204-.72865-.95204-.69497,0-1.49549.42626-1.788.95204s.03373.95204.72865.95204Z"/>
  <path class="cls-1" d="M41.79128,139.69919c.69492,0,1.49544-.42626,1.78795-.95204s-.03373-.95204-.72865-.95204c-.69497,0-1.49544.42626-1.78795.95204-.29256.52578.03368.95204.72865.95204Z"/>
  <path class="cls-1" d="M34.34755,139.69919c.69492,0,1.49544-.42626,1.78795-.95204s-.03368-.95204-.7286-.95204c-.69497,0-1.49549.42626-1.788.95204-.29256.52578.03368.95204.72865.95204Z"/>
  <path class="cls-1" d="M57.73799,137.79511c-.69497,0-1.49544.42626-1.78795.95204s.03373.95204.72865.95204c.69497,0,1.49544-.42626,1.78795-.95204s-.03373-.95204-.72865-.95204Z"/>
  <path class="cls-1" d="M65.18171,137.79511c-.69497,0-1.49549.42626-1.788.95204s.03373.95204.72865.95204c.69497,0,1.49549-.42626,1.788-.95204.29256-.52578-.03368-.95204-.72865-.95204Z"/>
  <path class="cls-1" d="M45.14992,146.94758c.69497,0,1.49549-.42621,1.788-.95199.29246-.52583-.03373-.95209-.72865-.95209-.69497,0-1.49549.42626-1.788.95209-.29251.52578.03373.95199.72865.95199Z"/>
  <path class="cls-1" d="M37.70624,146.94758c.69492,0,1.49544-.42621,1.78795-.95199.29251-.52583-.03373-.95209-.72865-.95209-.69497,0-1.49544.42626-1.78795.95209-.29251.52578.03373.95199.72865.95199Z"/>
  <path class="cls-1" d="M30.26251,146.94758c.69497,0,1.49549-.42621,1.78795-.95199.29251-.52583-.03368-.95209-.7286-.95209-.69497,0-1.49549.42626-1.788.95209-.29256.52578.03368.95199.72865.95199Z"/>
  <path class="cls-1" d="M53.65295,145.04351c-.69497,0-1.49544.42626-1.78795.95209-.29251.52578.03373.95199.72865.95199.69497,0,1.49544-.42621,1.78795-.95199.29251-.52583-.03373-.95209-.72865-.95209Z"/>
  <path class="cls-1" d="M61.09667,145.04351c-.69497,0-1.49544.42626-1.788.95209-.29251.52578.03373.95199.72865.95199.69497,0,1.49549-.42621,1.788-.95199.29256-.52583-.03368-.95209-.72865-.95209Z"/>
  <path class="cls-1" d="M53.42442,132.45079c.69497,0,1.49549-.42621,1.788-.95199.29251-.52583-.03368-.95209-.72865-.95209-.69492,0-1.49544.42626-1.788.95209-.29251.52578.03373.95199.72865.95199Z"/>
  <path class="cls-1" d="M45.98074,132.45079c.69492,0,1.49544-.42621,1.78795-.95199.29256-.52583-.03368-.95209-.72865-.95209s-1.49544.42626-1.78795.95209c-.29251.52578.03373.95199.72865.95199Z"/>
  <path class="cls-1" d="M38.53701,132.45079c.69497,0,1.49549-.42621,1.78795-.95199.29251-.52583-.03368-.95209-.7286-.95209-.69497,0-1.49549.42626-1.788.95209-.29251.52578.03373.95199.72865.95199Z"/>
  <path class="cls-1" d="M61.92745,130.54672c-.69492,0-1.49539.42626-1.78795.95209-.29251.52578.03373.95199.7287.95199.69492,0,1.49539-.42621,1.7879-.95199.29256-.52583-.03368-.95209-.72865-.95209Z"/>
  <path class="cls-1" d="M69.37118,130.54672c-.69492,0-1.49544.42626-1.788.95209-.29251.52578.03373.95199.7287.95199.69492,0,1.49544-.42621,1.788-.95199.29251-.52583-.03373-.95209-.7287-.95209Z"/>
  <path class="cls-1" d="M57.50941,125.2024c.69497,0,1.49549-.42626,1.788-.95204s-.03368-.95204-.72865-.95204-1.49549.42626-1.788.95204.03373.95204.72865.95204Z"/>
  <path class="cls-1" d="M50.06573,125.2024c.69492,0,1.49544-.42626,1.78795-.95204s-.03373-.95204-.72865-.95204c-.69497,0-1.49544.42626-1.78795.95204s.03373.95204.72865.95204Z"/>
  <path class="cls-1" d="M42.622,125.2024c.69497,0,1.49549-.42626,1.78795-.95204.29251-.52578-.03368-.95204-.7286-.95204-.69497,0-1.49549.42626-1.788.95204s.03373.95204.72865.95204Z"/>
  <path class="cls-1" d="M66.01244,123.29832c-.69492,0-1.49539.42626-1.78795.95204-.29251.52578.03373.95204.72865.95204.69497,0,1.49544-.42626,1.78795-.95204.29256-.52578-.03368-.95204-.72865-.95204Z"/>
  <path class="cls-1" d="M73.45617,123.29832c-.69492,0-1.49544.42626-1.788.95204-.29251.52578.03373.95204.7287.95204.69492,0,1.49544-.42626,1.78795-.95204.29256-.52578-.03368-.95204-.72865-.95204Z"/>
  <path class="cls-1" d="M113.50659,150.72841c-.69492,0-1.49544.42626-1.788.95204-.29251.52578.03373.95204.7287.95204.69492,0,1.49544-.42626,1.78795-.95204.29256-.52578-.03368-.95204-.72865-.95204Z"/>
  <path class="cls-1" d="M83.73177,150.72841c-.69497,0-1.49549.42626-1.788.95204s.03373.95204.72865.95204c.69497,0,1.49549-.42626,1.788-.95204.29246-.52578-.03373-.95204-.72865-.95204Z"/>
  <path class="cls-1" d="M76.28805,150.72841c-.69497,0-1.49544.42626-1.78795.95204s.03373.95204.72865.95204,1.49544-.42626,1.78795-.95204-.03373-.95204-.72865-.95204Z"/>
  <path class="cls-1" d="M68.84437,150.72841c-.69497,0-1.49549.42626-1.788.95204-.29256.52578.03368.95204.72865.95204.69492,0,1.49549-.42626,1.78795-.95204.29251-.52578-.03368-.95204-.7286-.95204Z"/>
  <path class="cls-1" d="M91.17545,150.72841c-.69497,0-1.49544.42626-1.78795.95204s.03373.95204.72865.95204c.69497,0,1.49544-.42626,1.78795-.95204s-.03373-.95204-.72865-.95204Z"/>
  <path class="cls-1" d="M98.61918,150.72841c-.69497,0-1.49544.42626-1.788.95204-.29251.52578.03373.95204.72865.95204.69497,0,1.49549-.42626,1.788-.95204.29256-.52578-.03368-.95204-.72865-.95204Z"/>
  <path class="cls-1" d="M106.06286,150.72841c-.69492,0-1.49539.42626-1.78795.95204-.29251.52578.03373.95204.72865.95204.69497,0,1.49544-.42626,1.78795-.95204.29256-.52578-.03368-.95204-.72865-.95204Z"/>
  <path class="cls-1" d="M87.92124,143.48002c-.69492,0-1.49544.42626-1.788.95209-.29251.52578.03373.95199.72865.95199.69497,0,1.49549-.42621,1.788-.95199.29251-.52583-.03368-.95209-.72865-.95209Z"/>
  <path class="cls-1" d="M80.47751,143.48002c-.69497,0-1.49539.42626-1.78795.95209-.29251.52578.03373.95199.72865.95199s1.49544-.42621,1.78795-.95199c.29256-.52583-.03368-.95209-.72865-.95209Z"/>
  <path class="cls-1" d="M73.03383,143.48002c-.69497,0-1.49549.42626-1.788.95209-.29251.52578.03373.95199.72865.95199.69497,0,1.49549-.42621,1.78795-.95199.29251-.52583-.03368-.95209-.7286-.95209Z"/>
  <path class="cls-1" d="M95.36492,143.48002c-.69492,0-1.49539.42626-1.78795.95209-.29251.52578.03373.95199.7287.95199.69492,0,1.49539-.42621,1.7879-.95199.29256-.52583-.03368-.95209-.72865-.95209Z"/>
  <path class="cls-1" d="M102.80864,143.48002c-.69492,0-1.49544.42626-1.78795.95209-.29256.52578.03368.95199.72865.95199.69492,0,1.49544-.42621,1.788-.95199.29251-.52583-.03373-.95209-.7287-.95209Z"/>
  <path class="cls-1" d="M110.25232,143.48002c-.69492,0-1.49539.42626-1.7879.95209-.29256.52578.03368.95199.72865.95199.69492,0,1.49539-.42621,1.78795-.95199.29251-.52583-.03373-.95209-.7287-.95209Z"/>
  <path class="cls-1" d="M92.1107,136.23162c-.69492,0-1.49544.42626-1.78795.95204-.29256.52578.03368.95204.72865.95204.69492,0,1.49544-.42626,1.788-.95204.29246-.52578-.03373-.95204-.7287-.95204Z"/>
  <path class="cls-1" d="M84.66697,136.23162c-.69492,0-1.49539.42626-1.78795.95204-.29251.52578.03373.95204.7287.95204.69487,0,1.49539-.42626,1.78795-.95204.29251-.52578-.03373-.95204-.7287-.95204Z"/>
  <path class="cls-1" d="M77.22329,136.23162c-.69492,0-1.49544.42626-1.788.95204-.29251.52578.03373.95204.7287.95204.69492,0,1.49544-.42626,1.7879-.95204.29256-.52578-.03363-.95204-.7286-.95204Z"/>
  <path class="cls-1" d="M99.55443,136.23162c-.69497,0-1.49544.42626-1.78795.95204-.29256.52578.03368.95204.72865.95204.69492,0,1.49539-.42626,1.78795-.95204.29251-.52578-.03373-.95204-.72865-.95204Z"/>
  <path class="cls-1" d="M96.19574,128.98318c-.69492,0-1.49544.42626-1.78795.95209-.29256.52578.03368.95199.72865.95199.69492,0,1.49544-.42621,1.788-.95199.29246-.52583-.03373-.95209-.7287-.95209Z"/>
  <path class="cls-1" d="M88.75201,128.98318c-.69492,0-1.49539.42626-1.78795.95209-.29251.52578.03373.95199.7287.95199.69487,0,1.49539-.42621,1.7879-.95199.29256-.52583-.03368-.95209-.72865-.95209Z"/>
  <path class="cls-1" d="M81.30833,128.98318c-.69492,0-1.49544.42626-1.788.95209-.29251.52578.03373.95199.72865.95199.69497,0,1.49549-.42621,1.78795-.95199.29256-.52583-.03363-.95209-.7286-.95209Z"/>
  <path class="cls-1" d="M143.74834,55.79024c.02737-.05184.04881-.10565.07025-.15999.01797-.04528.03735-.08983.05091-.1359.01474-.05008.0232-.10119.033-.1525.00974-.05101.02115-.10153.02585-.15284.00475-.05116.00274-.10241.00259-.15401-.00029-.05111.00127-.10197-.00387-.15264-.00514-.0515-.01699-.10217-.02722-.15343-.01018-.05101-.01904-.10183-.03412-.15157-.01395-.04602-.03378-.09052-.05214-.1357-.02188-.0541-.04377-.1077-.07152-.1593-.0072-.01332-.01072-.02756-.01831-.04073v-.00005L112.94864.8036c-.28605-.49665-.81702-.8036-1.39009-.8036h-39.47559c-.01532,0-.02947.00548-.04475.00592-.12058.00348-.23998.01699-.3561.047-.00666.00171-.01371.00176-.02032.00352-.11901.03241-.2321.08254-.34117.14148-.03251.01762-.06237.03809-.0936.05796-.07755.0491-.1502.10476-.21908.16743-.02756.02511-.05532.04871-.08117.07578-.08014.08386-.15303.17595-.21521.27924-.00475.00788-.01195.01351-.01655.02149-.00078.00132-.00098.00289-.00176.00421-.00098.00171-.0024.00304-.00338.00475L.21105,124.24992c-.01057.01851-.014.03941-.02379.05826-.04435.08504-.08034.17384-.10907.267-.0095.03094-.02095.06066-.02854.09204-.02957.1218-.04964.24723-.04964.37813,0,.12934.01944.25344.04832.37392.0072.03021.01851.05875.02746.08856.02849.09399.06428.18373.10868.26955.0095.01846.01278.03897.02301.05708l17.87966,31.64545c.00147.00264.00382.00445.00534.0071.00147.00259.00191.00553.00338.00808.00705.01219.01802.0209.02536.0329.05987.09723.12768.18838.20625.27043.00725.00754.01258.01684.01997.02423.00127.00132.00259.00269.00387.00397.00553.00553.01234.00935.01797.01483.08176.07916.17296.1475.27004.20801.0139.00867.02551.02046.0397.02869.02071.01199.0445.01743.0657.02849.07911.04147.16141.07559.24757.10349.02404.00778.04548.02154.06991.02815.01346.00362.02795.00313.04151.00646.11686.02854.23729.04705.36256.04847.00436.00005.00832.00171.01268.00171.00069,0,.00127-.00024.00191-.00024.00103,0,.00196.00029.00299.00029v-.00005h101.53737c.00113,0,.00215-.00044.00328-.00044.00117,0,.0022.00044.00338.00044.01635-.00005.03138-.00597.04763-.00651.1125-.00357.22402-.01753.33393-.04489.01087-.00269.02252-.0023.03334-.00529.00509-.00137.00989-.00313.01493-.00455.11505-.03256.22387-.08092.32805-.13791.01263-.0069.02707-.01004.03956-.01723.02727-.01576.04945-.03877.07573-.0562.06775-.04489.13135-.09385.19166-.14834.01997-.01806.04391-.03074.06301-.04989.01346-.01356.0233-.0306.03632-.04465.07348-.07872.13903-.1641.19548-.25658.00651-.01067.01625-.01841.02252-.02928.00117-.00206.00152-.00441.00269-.00646.00152-.00264.00372-.00475.00519-.00739l17.87971-31.65157c.00749-.01327.01092-.02756.01797-.04093.02737-.05184.04881-.10565.07025-.15999.01797-.04528.03735-.08983.05091-.1359.00436-.01483.01072-.02893.01469-.04391.00392-.01488.00411-.03011.00759-.04509.0049-.02095.00671-.0424.01072-.0635.00974-.05101.02115-.10153.02585-.15284.00328-.0353.00289-.07054.00382-.10604.00083-.03197.00064-.06315-.00044-.09512-.00122-.03535-.00113-.0704-.00465-.10545-.00514-.05175-.01709-.10266-.02737-.15411-.00401-.02017-.00597-.04078-.01077-.0608-.00372-.01552-.00411-.03138-.00832-.0468-.00401-.01469-.01038-.02849-.01483-.04308-.01405-.04621-.03388-.09086-.05233-.13624-.02188-.054-.04367-.10746-.07138-.15896-.0071-.01312-.01057-.02717-.01806-.04019-.0001-.0002-.00015-.00044-.00024-.00064l-17.77162-30.85869,21.21099-37.54875c.00749-.01327.01092-.02756.01797-.04093ZM72.08551,4.83509l16.28597,28.42056-51.68234,90.18553H4.36722L72.08551,4.83509ZM127.01076,34.85992l-69.28722,120.22666H22.25202L91.15005,34.85992h35.86072ZM101.85671,123.43505h-22.18921l16.39196-28.44323,21.86459-.00005-16.06733,28.44328ZM34.85057,126.64952l-2.54378,4.43889-12.81307,22.35875-15.14065-26.79764h30.4975ZM77.81849,126.6434h24.04712l1.37477,2.38707c-.57885.12077-1.15138.47785-1.38887.9048-.29256.52578.03368.95199.72865.95199.49558,0,1.04167-.21873,1.42211-.53376l3.42541,5.94789c-.12048-.04411-.26367-.06976-.42954-.06976-.69497,0-1.49549.42626-1.788.95204-.29256.52578.03368.95204.72865.95204s1.49549-.42626,1.788-.95204c.04147-.07456.06736-.14623.08469-.21584l10.43466,18.11876-56.81958.00005,16.39191-28.44323ZM137.05407,125.04686l-16.04633,28.40617-16.36802-28.42154,16.04638-28.40607,14.22338,24.69755,2.14459,3.7239ZM119.73637,91.78348h-21.82792l31.8778-55.31415,10.70059,18.58051-20.75046,36.73364ZM110.63119,3.20835l16.38055,28.44323h-35.86169L74.85111,3.20835h35.78009Z"/>
</svg>